# Blender v3.1.2 OBJ File: 'stage_parts.blend'
# www.blender.org
mtllib stage_parts_goal.mtl
o Cylinder.002
v -2.040273 0.000000 -1.000000
v -2.040273 3.000000 -1.000000
v -1.174247 0.000000 -0.500000
v -1.174247 3.000000 -0.500000
v -1.174247 0.000000 0.500000
v -1.174247 3.000000 0.500000
v -2.040273 0.000000 1.000000
v -2.040273 3.000000 1.000000
v -2.906298 0.000000 0.500000
v -2.906298 3.000000 0.500000
v -2.906298 0.000000 -0.500000
v -2.906298 3.000000 -0.500000
v -1.390754 1.705230 -0.375000
v -1.390754 1.705230 0.375000
v -2.689792 1.705230 0.375000
v -2.040273 1.705230 -0.750000
v -2.040273 1.705230 0.750000
v -2.040273 1.705230 0.000000
v -2.040273 3.000000 0.750000
v -2.040273 3.000000 -0.750000
v -2.689792 3.000000 0.375000
v -1.390754 3.000000 0.375000
v -1.390754 3.000000 -0.375000
v -2.689792 3.000000 -0.375000
v -2.689792 1.705230 -0.375000
vt 0.000072 0.000072
vt 0.500145 0.000072
vt 0.500145 0.166715
vt 0.000072 0.166715
vt 0.500145 0.333357
vt 0.000072 0.333357
vt 0.500145 0.500000
vt 0.000072 0.500000
vt 0.500145 0.666643
vt 0.000072 0.666643
vt 0.500145 0.833285
vt 0.000072 0.833286
vt 0.500145 0.999928
vt 0.000072 0.999928
vt 0.983265 0.146269
vt 0.983265 0.410388
vt 0.926081 0.377373
vt 0.926081 0.179284
vt 0.754531 0.542447
vt 0.754531 0.476417
vt 0.525798 0.410388
vt 0.582981 0.377373
vt 0.525798 0.146269
vt 0.582981 0.179284
vt 0.754531 0.014210
vt 0.754531 0.080240
vt 0.980073 0.965887
vt 0.925271 0.965887
vt 0.925271 0.871277
vt 0.980073 0.871277
vt 0.870468 0.965887
vt 0.870468 0.871277
vt 0.706060 0.965887
vt 0.651257 0.965887
vt 0.651257 0.871277
vt 0.706060 0.871277
vt 0.815665 0.965887
vt 0.815665 0.871277
vt 0.760862 0.965887
vt 0.760862 0.871277
vt 0.551705 0.963019
vt 0.524304 0.915558
vt 0.579107 0.915558
vt 0.606508 0.868098
vt 0.633909 0.915558
vt 0.551705 0.868098
vt 0.606508 0.963019
vn 0.5000 0.0000 -0.8660
vn 1.0000 0.0000 0.0000
vn 0.5000 0.0000 0.8660
vn -0.5000 0.0000 0.8660
vn -1.0000 0.0000 0.0000
vn -0.5000 0.0000 -0.8660
vn 0.0000 1.0000 0.0000
usemtl Material.001
s off
f 1/1/1 2/2/1 4/3/1 3/4/1
f 3/4/2 4/3/2 6/5/2 5/6/2
f 5/6/3 6/5/3 8/7/3 7/8/3
f 7/8/4 8/7/4 10/9/4 9/10/4
f 9/10/5 10/9/5 12/11/5 11/12/5
f 11/12/6 12/11/6 2/13/6 1/14/6
f 4/15/7 2/16/7 20/17/7 23/18/7
f 2/16/7 12/19/7 24/20/7 20/17/7
f 12/19/7 10/21/7 21/22/7 24/20/7
f 10/21/7 8/23/7 19/24/7 21/22/7
f 8/23/7 6/25/7 22/26/7 19/24/7
f 6/25/7 4/15/7 23/18/7 22/26/7
f 19/27/6 22/28/6 14/29/6 17/30/6
f 22/28/5 23/31/5 13/32/5 14/29/5
f 21/33/1 19/34/1 17/35/1 15/36/1
f 23/31/4 20/37/4 16/38/4 13/32/4
f 20/37/3 24/39/3 25/40/3 16/38/3
f 24/39/2 21/33/2 15/36/2 25/40/2
f 13/41/7 16/42/7 18/43/7
f 15/44/7 17/45/7 18/43/7
f 25/46/7 15/44/7 18/43/7
f 14/47/7 13/41/7 18/43/7
f 16/42/7 25/46/7 18/43/7
f 17/45/7 14/47/7 18/43/7
